<svg id="Layer_1" data-name="Layer 1" xmlns="http://www.w3.org/2000/svg" viewBox="0 0 26.68 30.69">
  <defs>
    <style>
      .cls-1, .cls-2, .cls-3 {
        fill: none;
        stroke: #fff;
        stroke-width: 2px;
      }

      .cls-1 {
        stroke-linejoin: round;
      }

      .cls-3 {
        stroke-linecap: round;
      }
    </style>
  </defs>
  <title>doctor</title>
  <g id="Page-1">
    <g id="Desktop-Copy-3">
      <g id="Group">
        <g id="DR-Navy">
          <g id="Page-1-2" data-name="Page-1">
            <path id="Stroke-1" class="cls-1" d="M13.41,20c1.07,0,4.42-2.63,4.42-2.63l2.87,1.41c.74.37,3.86,1.62,4.28,2.22a5.85,5.85,0,0,1,.7,3.12,16.35,16.35,0,0,1-.13,2.85S22.24,29.69,14,29.69c-9.31,0-12.75-2.8-12.75-2.8A12.94,12.94,0,0,1,1,24a5.52,5.52,0,0,1,.84-3.08c.44-.56,3.47-1.75,4.24-2.12l2.05-1A4.74,4.74,0,0,1,9,17.4S12.34,20,13.41,20Z" transform="translate(0 0)"/>
            <path id="Stroke-3" class="cls-2" d="M18.7,8.47c0,4.33-2.17,7.31-5.4,7.31s-5.4-3-5.4-7.31c0-1.2,0-6.73,0-6.73a20.23,20.23,0,0,1,10.79,0h0S18.7,7.49,18.7,8.47Z" transform="translate(0 0)"/>
            <path id="Stroke-5" class="cls-3" d="M7.9,7.15H18.7" transform="translate(0 0)"/>
            <path id="Stroke-7" class="cls-3" d="M13.34,2.91V5.22" transform="translate(0 0)"/>
          </g>
        </g>
      </g>
    </g>
  </g>
</svg>
