<svg id="Layer_1" data-name="Layer 1" xmlns="http://www.w3.org/2000/svg" viewBox="0 0 75.24 47.91">
  <defs>
    <style>
      .cls-1 {
        fill: #fff;
      }
    </style>
  </defs>
  <title>logo-white</title>
  <path class="cls-1" d="M16.1,36.3s-.7,3.2-1,4.6a13.52,13.52,0,0,0-.4,2.9c0,1,1.6,1.1,2.2,1.2s1-.2,1.1-.9a87.13,87.13,0,0,1,3.2-9.9,76.19,76.19,0,0,1,3.5-7.3s-1.6,4.5-3,9c-1.2,4.1-2.2,8.2-2.3,8.7-.1.9,1.4,1.1,1.9,1.2a1.34,1.34,0,0,0,1.4-.8c.8-2.2,2-5.3,2.6-6.7.8-1.8,3.8-7.2,3.8-7.2s-.6,2.2-1.3,4.2c-.5,1.6-1.3,3.9-1.5,4.5-.1.3.4.7,1,.9,1.1.4,1.5.2,1.8-.4s1.8-4.4,2.4-5.7,2.8-5.1,2.8-5.1-.6,1.7-.9,2.5a27.18,27.18,0,0,0-1.7,6.2c0,.2,0,.5.1.6a1.69,1.69,0,0,0,2.7-.2l2.7-5.1c.5-1,1.7-2.8,1.7-2.8s-.7,3.4-1,5a.89.89,0,0,0,.6,1,1.62,1.62,0,0,0,2.3-.6c1.2-1.9,2.8-3.6,3.4-5.9.1-.5.4-1.5.1-1.5s-.9.9-1.6,1.7c-.9,1-1.8,1.9-1.8,1.9s2.8-7.9,3-9.4a1.05,1.05,0,0,0-.7-1.3c-.8-.3-1.3-.3-1.7.3-.7,1.1-2.8,4.2-2.8,4.2s2.2-4.8,2.9-6.1,1.4-2.8,2.2-4c.6-.8-.5-1.5-.6-1.6a1.32,1.32,0,0,0-1.9.2,28.14,28.14,0,0,1-2.6,2.9,38.53,38.53,0,0,1,3.8-6.1c.7-.9.2-1.4-.4-2-.6-.4-1.1-.4-1.9.3S36,15,34.5,16.9s-4.7,7.2-4.7,7.2,2.4-5.6,3.9-8.5a65.6,65.6,0,0,1,6-9.5c.8-1-.2-1.9-.6-2.2-.7-.4-1.3-.4-1.7,0A70.32,70.32,0,0,0,31.9,10s2-3.2,3.1-4.7c.8-1.1,0-1.6-.5-1.8a1.45,1.45,0,0,0-2.2.3c-.7,1-3.7,4.9-4.5,6.1-.5.8-4,6-4,6s1.5-3,2.3-4.5A107.07,107.07,0,0,1,32,2.3c.5-.8-.1-1.1-.8-1.6-.5-.3-1.2-.9-2-.1a38.83,38.83,0,0,1-2.9,3.1.31.31,0,0,1,.1-.2c.1-.3.4-.7-.4-1.2-.4-.3-.9-.5-1.4-.8a.83.83,0,0,0-1.1.3L22,3.6c-.3.3-.4.3-.8.1a5.67,5.67,0,0,0-1.3-.8,1,1,0,0,0-1.4.4c-.9,1.3-1.9,2.6-2.9,3.9s-3.4,4.6-3.4,4.6S13.3,9.3,14,8.1s1.8-3.4,2.1-3.9c.5-1-.4-1.2-1-1.5s-1.3-.7-1.9-.1C12.4,3.2,8.1,8.8,6,12,4,15,1.1,20.8.8,22.3a.73.73,0,0,0,.6.9A1.55,1.55,0,0,0,2.6,23c.6-1,.9-1.6,1.5-2.7a8,8,0,0,1,1.2-1.7S3,24.9,2.7,25.7c-.3,1-2.1,6.4-2.7,8.1-.1.4,0,.7.4.8s1.2.1,1.7.4-.2,2.4-.4,3.2a16.35,16.35,0,0,0-.5,4.9c0,.3.3.7.5.7a12.86,12.86,0,0,0,1.9.4c.6.1.4.6,1,.9a3.08,3.08,0,0,0,1.3.3,1.21,1.21,0,0,0,1.3-.9,75.37,75.37,0,0,1,3.1-9,95.91,95.91,0,0,1,5-10.1s-2.1,6.3-2.3,7C12.6,33.6,8.9,46,8.8,47s1.4,1.1,1.8,1.1c.9.1,1.2-.3,1.4-1.1A104.42,104.42,0,0,1,16.1,36.3Zm43.5-30c1-1.5.4-2-.4-2.4-1.7-1-2-.9-3.6.9L52.3,8.5s.6-1.6.9-2.2c.4-.8.1-1.3-.9-1.8S50.9,3.9,50,5c-1.1,1.4-2.2,2.9-3.2,4.4-.6.8-.4,1.2.4,1.7.3.2.3.3.3.6a29.88,29.88,0,0,0-.9,3.2c-.4,1.9-.7,4-1,5.9s1.4,1.4,2.2,1.7-.3,3.3-.6,4.5-.9,3.3-.6,4.6c.2.9.3,1.1,1.5,1.6s1.8.3,1.9-.3a45.28,45.28,0,0,1,2.8-7.8,49.55,49.55,0,0,1,4.3-6.6s-2,5-2.6,6.7c-.5,1.5-1.5,4.1-1.9,5.7-.3.7.6,1.1.9,1.3.8.3,1.6.6,2-.4a43.43,43.43,0,0,1,2.2-5.2c1-2,3.1-5.2,3.1-5.2s-.4,1.6-.7,2.5,0,1.3.9,1.6,1.4.3,1.9-.3.6-1,1-1.7a6.71,6.71,0,0,1,.9-1.4c.3-.3.6.2.8.4,1.1.8,2,.8,3.3-.7.9-1.1,6.3-6.3,6.3-7.7s-.6-1-1.2-.3A41.3,41.3,0,0,1,70,17s.6-1.5,1.5-3.3c.2-.4,1.4-2.2,1.6-2.7s.1-.7-.7-1.2-1.1-.6-1.8,0c-.5.4-1.2,1-1.2,1a9.25,9.25,0,0,0,.5-.9c.5-.7.3-1.1-.8-1.7s-1.4-.3-1.8.1c-.6.7-4.1,4.5-4.1,4.5s2-3.3,3.1-5c.7-1,1.1-2-.2-2.7s-1.6-.5-2.4.2c-.3.3-3.9,4-5.3,5.8s-4.7,6-4.7,6a27.68,27.68,0,0,1,2.1-4.5A65.6,65.6,0,0,1,59.6,6.3Z" transform="translate(0.04 -0.2)"/>
</svg>
