<?xml version="1.0" encoding="UTF-8"?>
<svg width="289px" height="48px" viewBox="0 0 289 48" version="1.1" xmlns="http://www.w3.org/2000/svg" xmlns:xlink="http://www.w3.org/1999/xlink">
    <!-- Generator: Sketch 46.1 (44463) - http://www.bohemiancoding.com/sketch -->
    <title>Logo-1</title>
    <desc>Created with Sketch.</desc>
    <defs></defs>
    <g id="Page-1" stroke="none" stroke-width="1" fill="none" fill-rule="evenodd">
        <g id="Desktop-Copy-3" transform="translate(-147.000000, -21.000000)">
            <g id="NAV-BAR" transform="translate(0.000000, -1.000000)">
                <g id="LOGO" transform="translate(147.000000, 22.000000)">
                    <g id="REG_Logo_White_Green_RGB">
                        <path d="M75.2739268,8.24753058 L70.7634905,8.24753058 L70.7634905,14.2250124 L75.2739268,14.2250124 C77.1348049,14.2250124 78.4881707,13.0406391 78.4881707,11.2358798 C78.4881707,9.43112054 77.1348049,8.24753058 75.2739268,8.24753058 Z M74.0333415,17.1287635 L70.7634905,17.1287635 L70.7634905,24.1496218 L67.4646612,24.1496218 L67.4646612,5.34299611 L75.7250488,5.34299611 C79.4460217,5.34299611 81.8708022,7.76735808 81.8708022,11.2358798 C81.8708022,14.5908208 79.6715827,16.3955801 77.4167561,16.7621718 L82.0117778,24.1496218 L78.2062195,24.1496218 L74.0333415,17.1287635 L74.0333415,17.1287635 Z" id="Fill-1" fill="#FFFFFF"></path>
                        <polyline id="Fill-2" fill="#FFFFFF" points="85.1711978 5.34299611 98.0548022 5.34299611 98.0548022 8.24753058 88.4692439 8.24753058 88.4692439 13.1252372 97.8574363 13.1252372 97.8574363 16.0289883 88.4692439 16.0289883 88.4692439 21.2450873 98.0548022 21.2450873 98.0548022 24.1496218 85.1711978 24.1496218 85.1711978 5.34299611"></polyline>
                        <path d="M110.460656,5.03280311 C114.126022,5.03280311 116.521824,6.78116366 118.04436,8.95251467 L115.338412,10.474497 C114.351583,9.06452881 112.57529,7.96475362 110.460656,7.96475362 C106.739683,7.96475362 103.976561,10.8128894 103.976561,14.7608003 C103.976561,18.7079279 106.739683,21.584263 110.460656,21.584263 C112.377924,21.584263 114.069631,20.6818834 114.915485,19.8915179 L114.915485,16.9595673 L109.305439,16.9595673 L109.305439,14.0558162 L118.213531,14.0558162 L118.213531,21.1040905 C116.352653,23.162644 113.73129,24.5162135 110.460656,24.5162135 C105.01978,24.5162135 100.59393,20.653684 100.59393,14.7608003 C100.59393,8.86713326 105.01978,5.03280311 110.460656,5.03280311" id="Fill-3" fill="#FFFFFF"></path>
                        <polyline id="Fill-4" fill="#FFFFFF" points="121.655686 5.34299611 134.53929 5.34299611 134.53929 8.24753058 124.953732 8.24753058 124.953732 13.1252372 134.341924 13.1252372 134.341924 16.0289883 124.953732 16.0289883 124.953732 21.2450873 134.53929 21.2450873 134.53929 24.1496218 121.655686 24.1496218 121.655686 5.34299611"></polyline>
                        <polyline id="Fill-5" fill="#FFFFFF" points="141.222317 10.4462976 141.222317 24.1496218 137.923488 24.1496218 137.923488 5.34299611 141.306902 5.34299611 150.919873 18.6797285 150.919873 5.34299611 154.218702 5.34299611 154.218702 24.1496218 151.032653 24.1496218 141.222317 10.4462976"></polyline>
                        <polyline id="Fill-6" fill="#FFFFFF" points="157.942024 5.34299611 170.825629 5.34299611 170.825629 8.24753058 161.24007 8.24753058 161.24007 13.1252372 170.628263 13.1252372 170.628263 16.0289883 161.24007 16.0289883 161.24007 21.2450873 170.825629 21.2450873 170.825629 24.1496218 157.942024 24.1496218 157.942024 5.34299611"></polyline>
                        <path d="M182.582995,8.24753058 L178.072558,8.24753058 L178.072558,14.2250124 L182.582995,14.2250124 C184.443873,14.2250124 185.797238,13.0406391 185.797238,11.2358798 C185.797238,9.43112054 184.443873,8.24753058 182.582995,8.24753058 Z M181.343192,17.1287635 L178.072558,17.1287635 L178.072558,24.1496218 L174.774512,24.1496218 L174.774512,5.34299611 L183.034117,5.34299611 C186.755873,5.34299611 189.180653,7.76735808 189.180653,11.2358798 C189.180653,14.5908208 186.981434,16.3955801 184.725824,16.7621718 L189.321629,24.1496218 L185.515287,24.1496218 L181.343192,17.1287635 L181.343192,17.1287635 Z" id="Fill-7" fill="#FFFFFF"></path>
                        <path d="M196.991485,17.6363521 L204.039482,17.6363521 L200.515092,8.13473312 L196.991485,17.6363521 Z M204.969138,20.5401032 L196.061046,20.5401032 L194.679485,24.1496218 L191.071293,24.1496218 L198.457631,5.34299611 L202.573336,5.34299611 L209.959675,24.1496218 L206.350699,24.1496218 L204.969138,20.5401032 L204.969138,20.5401032 Z" id="Fill-8" fill="#FFFFFF"></path>
                        <polyline id="Fill-9" fill="#FFFFFF" points="214.105141 8.24753058 208.410509 8.24753058 208.410509 5.34299611 223.098602 5.34299611 223.098602 8.24753058 217.40397 8.24753058 217.40397 24.1496218 214.105141 24.1496218 214.105141 8.24753058"></polyline>
                        <polyline id="Fill-10" fill="#FFFFFF" points="225.327583 5.34299611 238.211187 5.34299611 238.211187 8.24753058 228.625629 8.24753058 228.625629 13.1252372 238.013821 13.1252372 238.013821 16.0289883 228.625629 16.0289883 228.625629 21.2450873 238.211187 21.2450873 238.211187 24.1496218 225.327583 24.1496218 225.327583 5.34299611"></polyline>
                        <polyline id="Fill-11" fill="#2CD5C4" points="69.9450488 37.3727734 69.9450488 47.6490916 67.47171 47.6490916 67.47171 33.5462764 70.0084878 33.5462764 77.2178238 43.5468674 77.2178238 33.5462764 79.6911626 33.5462764 79.6911626 47.6490916 77.301626 47.6490916 69.9450488 37.3727734"></polyline>
                        <path d="M85.6567805,42.7651184 L90.9417995,42.7651184 L88.29929,35.6392959 L85.6567805,42.7651184 Z M91.6396287,44.9427359 L84.9589512,44.9427359 L83.9227805,47.6490916 L81.216832,47.6490916 L86.755607,33.5462764 L89.8421897,33.5462764 L95.3809648,47.6490916 L92.6750163,47.6490916 L91.6396287,44.9427359 L91.6396287,44.9427359 Z" id="Fill-12" fill="#2CD5C4"></path>
                        <path d="M97.6044634,43.7583627 C98.5771951,44.7946893 100.098949,45.7041188 102.065558,45.7041188 C104.094824,45.7041188 104.898385,44.7100912 104.898385,43.7802955 C104.898385,42.5113241 103.396995,42.1306327 101.684924,41.6864928 C99.3807561,41.1154556 96.6748076,40.4386709 96.6748076,37.4573715 C96.6748076,35.1324906 98.7252195,33.3347812 101.811802,33.3347812 C104.010238,33.3347812 105.785748,34.0327154 107.096821,35.3009035 L105.680016,37.1401287 C104.58119,36.0411368 103.079799,35.5335483 101.600339,35.5335483 C100.141241,35.5335483 99.2115854,36.2314825 99.2115854,37.2881753 C99.2115854,38.3879505 100.648753,38.7474924 102.319314,39.1704829 C104.644629,39.7626695 107.414016,40.4817533 107.414016,43.5468674 C107.414016,45.8944645 105.764602,47.9028858 101.959827,47.9028858 C99.3596098,47.9028858 97.4775854,46.9934563 96.2307344,45.6618197 L97.6044634,43.7583627" id="Fill-13" fill="#2CD5C4"></path>
                        <polyline id="Fill-14" fill="#2CD5C4" points="119.086797 41.496147 111.750583 41.496147 111.750583 47.6490916 109.277244 47.6490916 109.277244 33.5462764 111.750583 33.5462764 111.750583 39.3185295 119.086797 39.3185295 119.086797 33.5462764 121.560136 33.5462764 121.560136 47.6490916 119.086797 47.6490916 119.086797 41.496147"></polyline>
                        <polyline id="Fill-15" fill="#2CD5C4" points="130.000659 33.5462764 139.661404 33.5462764 139.661404 35.723894 132.473997 35.723894 132.473997 39.3819781 139.513379 39.3819781 139.513379 41.5595956 132.473997 41.5595956 132.473997 47.6490916 130.000659 47.6490916 130.000659 33.5462764"></polyline>
                        <polygon id="Fill-16" fill="#2CD5C4" points="141.884119 47.6490916 144.358241 47.6490916 144.358241 33.5462764 141.884119 33.5462764"></polygon>
                        <path d="M153.470748,45.471474 C154.823331,45.471474 155.626892,44.7312407 155.626892,43.5045684 C155.626892,42.4478756 154.88677,41.5595956 153.470748,41.5595956 L149.411434,41.5595956 L149.411434,45.471474 L153.470748,45.471474 Z M153.365016,39.3819781 C154.633014,39.3819781 155.351989,38.6205953 155.351989,37.5631191 C155.351989,36.5064263 154.633014,35.723894 153.365016,35.723894 L149.411434,35.723894 L149.411434,39.3819781 L153.365016,39.3819781 Z M146.938095,33.5462764 L153.872528,33.5462764 C156.451599,33.5462764 157.888767,35.1528568 157.888767,37.1401287 C157.888767,38.9166886 156.747648,40.1010619 155.436575,40.3752223 C156.937965,40.6078671 158.163669,42.1094832 158.163669,43.8429608 C158.163669,46.0205783 156.705355,47.6490916 154.062846,47.6490916 L146.938095,47.6490916 L146.938095,33.5462764 L146.938095,33.5462764 Z" id="Fill-17" fill="#2CD5C4"></path>
                        <path d="M166.073967,35.723894 L162.691336,35.723894 L162.691336,40.2060262 L166.073967,40.2060262 C167.468843,40.2060262 168.483867,39.3185295 168.483867,37.9649601 C168.483867,36.6121739 167.468843,35.723894 166.073967,35.723894 Z M165.143528,42.384427 L162.691336,42.384427 L162.691336,47.6490916 L160.217997,47.6490916 L160.217997,33.5462764 L166.412309,33.5462764 C169.202843,33.5462764 171.020645,35.3643521 171.020645,37.9649601 C171.020645,40.4817533 169.372014,41.8345394 167.680306,42.1094832 L171.126377,47.6490916 L168.272404,47.6490916 L165.143528,42.384427 L165.143528,42.384427 Z" id="Fill-18" fill="#2CD5C4"></path>
                        <path d="M179.649919,35.5123987 C176.795946,35.5123987 174.97736,37.6907996 174.97736,40.6078671 C174.97736,43.5045684 176.795946,45.7041188 179.649919,45.7041188 C182.482745,45.7041188 184.321694,43.5045684 184.321694,40.6078671 C184.321694,37.6907996 182.482745,35.5123987 179.649919,35.5123987 Z M179.649919,33.3136317 C183.877621,33.3136317 186.858472,36.4006787 186.858472,40.6078671 C186.858472,44.8158388 183.877621,47.9028858 179.649919,47.9028858 C175.421434,47.9028858 172.440583,44.8158388 172.440583,40.6078671 C172.440583,36.4006787 175.421434,33.3136317 179.649919,33.3136317 L179.649919,33.3136317 Z" id="Fill-19" fill="#2CD5C4"></path>
                        <path d="M189.717144,43.7583627 C190.689092,44.7946893 192.211629,45.7041188 194.177455,45.7041188 C196.207504,45.7041188 197.010282,44.7100912 197.010282,43.7802955 C197.010282,42.5113241 195.509675,42.1306327 193.796821,41.6864928 C191.492653,41.1154556 188.786705,40.4386709 188.786705,37.4573715 C188.786705,35.1324906 190.837117,33.3347812 193.923699,33.3347812 C196.122919,33.3347812 197.898428,34.0327154 199.209501,35.3009035 L197.792696,37.1401287 C196.693087,36.0411368 195.19248,35.5335483 193.712236,35.5335483 C192.253921,35.5335483 191.323482,36.2314825 191.323482,37.2881753 C191.323482,38.3879505 192.761434,38.7474924 194.431211,39.1704829 C196.756526,39.7626695 199.525913,40.4817533 199.525913,43.5468674 C199.525913,45.8944645 197.877282,47.9028858 194.071724,47.9028858 C191.471507,47.9028858 189.590266,46.9934563 188.342631,45.6618197 L189.717144,43.7583627" id="Fill-20" fill="#2CD5C4"></path>
                        <polygon id="Fill-21" fill="#2CD5C4" points="201.812851 47.6490916 204.28619 47.6490916 204.28619 33.5462764 201.812851 33.5462764"></polygon>
                        <path d="M207.75419,43.7583627 C208.726921,44.7946893 210.248675,45.7041188 212.215285,45.7041188 C214.24455,45.7041188 215.048111,44.7100912 215.048111,43.7802955 C215.048111,42.5113241 213.546721,42.1306327 211.83465,41.6864928 C209.530482,41.1154556 206.824534,40.4386709 206.824534,37.4573715 C206.824534,35.1324906 208.874946,33.3347812 211.961528,33.3347812 C214.159965,33.3347812 215.935474,34.0327154 217.246547,35.3009035 L215.829743,37.1401287 C214.730916,36.0411368 213.229526,35.5335483 211.750065,35.5335483 C210.290967,35.5335483 209.361312,36.2314825 209.361312,37.2881753 C209.361312,38.3879505 210.79848,38.7474924 212.469041,39.1704829 C214.794355,39.7626695 217.563743,40.4817533 217.563743,43.5468674 C217.563743,45.8944645 215.914328,47.9028858 212.109553,47.9028858 C209.509336,47.9028858 207.627312,46.9934563 206.380461,45.6618197 L207.75419,43.7583627" id="Fill-22" fill="#2CD5C4"></path>
                        <path d="M225.749726,43.7583627 C226.721675,44.7946893 228.244211,45.7041188 230.210038,45.7041188 C232.240087,45.7041188 233.042864,44.7100912 233.042864,43.7802955 C233.042864,42.5113241 231.542257,42.1306327 229.829404,41.6864928 C227.525236,41.1154556 224.819287,40.4386709 224.819287,37.4573715 C224.819287,35.1324906 226.869699,33.3347812 229.956282,33.3347812 C232.155501,33.3347812 233.931011,34.0327154 235.242084,35.3009035 L233.825279,37.1401287 C232.725669,36.0411368 231.225062,35.5335483 229.745602,35.5335483 C228.286504,35.5335483 227.356065,36.2314825 227.356065,37.2881753 C227.356065,38.3879505 228.794016,38.7474924 230.463794,39.1704829 C232.789108,39.7626695 235.558496,40.4817533 235.558496,43.5468674 C235.558496,45.8944645 233.909864,47.9028858 230.104306,47.9028858 C227.504089,47.9028858 225.622848,46.9934563 224.375214,45.6618197 L225.749726,43.7583627" id="Fill-23" fill="#2CD5C4"></path>
                        <polyline id="Fill-24" fill="#2CD5C4" points="240.995455 35.723894 236.724678 35.723894 236.724678 33.5462764 247.739572 33.5462764 247.739572 35.723894 243.468794 35.723894 243.468794 47.6490916 240.995455 47.6490916 240.995455 35.723894"></polyline>
                        <path d="M248.989556,33.5462764 L251.484041,33.5462764 L251.484041,42.0037356 C251.484041,44.2448017 252.731675,45.7041188 255.099282,45.7041188 C257.445743,45.7041188 258.692593,44.2448017 258.692593,42.0037356 L258.692593,33.5462764 L261.187862,33.5462764 L261.187862,42.0671842 C261.187862,45.5764383 259.178959,47.9028858 255.099282,47.9028858 C250.997675,47.9028858 248.989556,45.5560721 248.989556,42.0883337 L248.989556,33.5462764" id="Fill-25" fill="#2CD5C4"></path>
                        <path d="M268.590648,45.471474 C271.656084,45.471474 273.431593,43.272707 273.431593,40.6078671 C273.431593,37.880362 271.740669,35.723894 268.590648,35.723894 L265.82126,35.723894 L265.82126,45.471474 L268.590648,45.471474 Z M263.347921,33.5462764 L268.590648,33.5462764 C272.98752,33.5462764 275.968371,36.4641273 275.968371,40.6078671 C275.968371,44.7523902 272.98752,47.6490916 268.590648,47.6490916 L263.347921,47.6490916 L263.347921,33.5462764 L263.347921,33.5462764 Z" id="Fill-26" fill="#2CD5C4"></path>
                        <polyline id="Fill-27" fill="#2CD5C4" points="280.665209 41.7922404 275.189873 33.5462764 278.022699 33.5462764 281.91206 39.5934733 285.759911 33.5462764 288.592737 33.5462764 283.138547 41.7922404 283.138547 47.6490916 280.665209 47.6490916 280.665209 41.7922404"></polyline>
                        <path d="M43.9522791,5.07118558 C44.644626,3.94869424 44.2138672,3.63380134 43.6758103,3.32360834 C42.4328753,2.6060912 42.2245447,2.64055709 41.0795095,3.97141039 C40.4905447,4.65602828 38.6461138,6.65269989 38.6461138,6.65269989 C38.6461138,6.65269989 39.0760894,5.46675999 39.2711057,5.05865253 C39.5577561,4.46019936 39.315748,4.10065748 38.5842412,3.78341463 C37.8519512,3.46617179 37.5480705,3.32047508 36.8854851,4.13903994 C36.0646938,5.15186709 35.3081247,6.22109297 34.5828835,7.30598515 C34.1709214,7.92167126 34.2656883,8.14334959 34.9071274,8.51777448 C35.1146748,8.63840509 35.1608835,8.75433581 35.0943117,8.97758077 C34.8656179,9.73974691 34.6079458,10.4972131 34.4481734,11.2742623 C34.1583902,12.6850138 33.9148157,14.1866299 33.6947371,15.5292329 C33.4738753,16.8710527 34.7222927,16.5389268 35.3261382,16.7410223 C35.9292005,16.9423344 35.1005772,19.1356182 34.909477,20.0293814 C34.7027127,20.9920764 34.2774363,22.4051778 34.5029973,23.3874556 C34.6565041,24.0579738 34.7285583,24.1911375 35.5971247,24.5467628 C36.4656911,24.9023881 36.8839187,24.775491 36.9551897,24.3548505 C37.0280271,23.9201103 37.7947778,21.187122 39.0095176,18.7040113 C39.9642358,16.7504221 42.1101978,13.9367522 42.1101978,13.9367522 C42.1101978,13.9367522 40.6291707,17.5932697 40.1976287,18.7933093 C39.798981,19.901701 39.1332629,21.7526759 38.7839566,22.9346992 C38.575626,23.4650039 39.1904363,23.7571806 39.4481084,23.8519618 C40.0041789,24.0579738 40.6276043,24.3062849 40.899374,23.534719 C41.1828916,22.663672 41.7561924,21.229421 42.4689024,19.7395546 C43.1816125,18.2504715 44.7292114,15.9937391 44.7292114,15.9937391 C44.7292114,15.9937391 44.4182818,17.1538296 44.2506775,17.7914486 C44.0791572,18.4439505 44.2561599,18.7713765 44.8694038,18.9899215 C45.4826477,19.2084666 45.9188889,19.2131665 46.2141545,18.7643266 C46.5352656,18.2771043 46.6315989,18.0491594 46.9401789,17.5533206 C47.1218808,17.2627105 47.4046152,16.7386723 47.6074634,16.5436267 C47.8095285,16.3485811 48.0507534,16.7237893 48.1972114,16.8655695 C48.9968564,17.4319067 49.6469106,17.4585394 50.6000623,16.3822637 C51.28771,15.6075645 55.1747209,11.8092669 55.1747209,10.7839067 C55.1747209,9.67081513 54.7416125,10.0875391 54.2732602,10.591211 C53.2370894,11.7082192 51.5657453,12.8181774 51.5657453,12.8181774 C51.5657453,12.8181774 51.9965041,11.7090025 52.6622222,10.4517808 C52.8125962,10.1666539 53.6780298,8.84833369 53.7892439,8.49505832 C53.9200379,8.07833439 53.8542493,8.01253588 53.2566694,7.62479463 C52.6590894,7.23783669 52.4820867,7.16498834 51.9495122,7.62557794 C51.5829756,7.94282078 51.0919106,8.37129445 51.0919106,8.37129445 C51.0919106,8.37129445 51.2133062,8.12063344 51.4435664,7.74307529 C51.7725095,7.20180417 51.6855745,6.91589396 50.8585176,6.52345281 C50.1183957,6.17252739 49.8254797,6.3331071 49.5325637,6.62998374 C49.062645,7.10702298 46.5321328,9.86586073 46.5321328,9.86586073 C46.5321328,9.86586073 47.977916,7.45716508 48.769729,6.20699328 C49.2615772,5.48085967 49.5952195,4.78919194 48.6044743,4.21893814 C47.601981,3.64241782 47.4531734,3.86722941 46.8681247,4.37246801 C46.6402141,4.56908024 44.0470461,7.24958643 42.9967778,8.57808978 C41.9472927,9.90737646 39.5765528,12.9145253 39.5765528,12.9145253 C39.5765528,12.9145253 39.9305583,11.7818508 41.1343333,9.60736656 C41.8000515,8.40576034 42.8440542,6.86497844 43.9522791,5.07118558 Z M12.340065,26.8567607 C12.340065,26.8567607 11.8513496,29.2004411 11.635187,30.2140516 C11.4895122,30.8955362 11.3767317,31.5919039 11.346187,32.2882715 C11.3140759,33.0073552 12.4802575,33.0841202 12.918065,33.1397356 C13.3965989,33.2000509 13.6135447,32.9689728 13.721626,32.5130831 C14.0286396,31.2221789 15.4031518,26.8058452 16.0179621,25.3308618 C17.2029404,22.4905592 18.5845014,20.0144984 18.5845014,20.0144984 C18.5845014,20.0144984 17.4159702,23.2785748 16.4346233,26.5520509 C15.5417778,29.530217 14.8290678,32.5279661 14.7781599,32.8499088 C14.6708618,33.5266935 15.7657724,33.6614238 16.1612873,33.7217391 C16.5857805,33.7867543 17.0204553,33.4836112 17.1598645,33.1240693 C17.775458,31.5331552 18.6166125,29.2396069 19.0536369,28.2408795 C19.6394688,26.902193 21.7862141,23.0114641 21.7862141,23.0114641 C21.7862141,23.0114641 21.3515393,24.6125613 20.8706558,26.0632619 C20.4868889,27.2217858 19.9511816,28.8941647 19.8015908,29.3680707 C19.7287534,29.5983655 20.0898076,29.8709593 20.5354472,30.0166561 C21.3476233,30.2822001 21.5904146,30.1310201 21.877065,29.69393 C22.0893117,29.3336048 23.1615095,26.5269848 23.6024499,25.5454903 C24.0245935,24.6047282 25.6074363,21.820041 25.641897,21.8255242 C25.641897,21.8255242 25.1829431,23.0819625 24.980878,23.6334168 C24.4287236,25.1459993 23.9658537,26.562234 23.7230623,28.1656812 C23.7011328,28.3113779 23.7261951,28.5158233 23.8154797,28.6192209 C24.3261247,29.2153241 25.4053713,29.1980912 25.7719079,28.4743075 C26.4102141,27.2147359 27.0806314,25.971614 27.7565312,24.7316253 C28.1418645,24.0258579 29.0025989,22.7122375 29.0025989,22.7122375 C29.0025989,22.7122375 28.5264146,25.1773319 28.262477,26.3468222 C28.2170515,26.7157639 28.4245989,26.9131594 28.6854038,27.0455398 C29.2814173,27.3596493 29.8727317,27.3408498 30.3496992,26.6186327 C31.2574255,25.2446971 32.3499864,23.9686759 32.8285203,22.3456458 C32.9256369,22.0182199 33.1331843,21.2450873 32.8755122,21.2842531 C32.6186233,21.3234189 32.2325068,21.9524214 31.730477,22.5234585 C31.0960867,23.2448922 30.4092222,23.9013107 30.4092222,23.9013107 C30.4092222,23.9013107 32.4674661,18.1744899 32.6264553,17.0989975 C32.6969431,16.618825 32.5215068,16.3446645 32.0985799,16.1833015 C31.4814201,15.9483068 31.1571762,15.9921725 30.8744417,16.4269127 C30.3559648,17.2251113 28.8334282,19.5014267 28.8334282,19.5014267 C28.8334282,19.5014267 30.4468157,15.9960891 30.9496287,15.099976 C31.4963008,14.1263146 31.9341084,13.0868547 32.5481355,12.157059 C32.9475664,11.5507727 32.1956965,11.0549339 32.0915312,10.9805189 C31.627878,10.6476098 31.1203659,10.695392 30.7365989,11.1262156 C29.3456396,12.7821449 28.8639729,13.2701506 28.8639729,13.2701506 C28.8639729,13.2701506 30.0583496,10.873988 31.6521572,8.80603464 C32.1776829,8.12455002 31.801748,7.76500813 31.3279133,7.38666667 C30.8548618,7.00910852 30.4632629,6.99892542 29.8617669,7.49398091 C29.260271,7.98981972 26.7736179,11.3431941 25.7397967,12.7233963 C24.7051924,14.1028151 22.2960759,17.9402785 22.2960759,17.9402785 C22.2960759,17.9402785 24.066103,13.9046363 25.1218537,11.7552181 C26.5692033,8.80681796 28.971271,5.52785861 29.5187263,4.8322743 C30.1037751,4.08969106 29.3385908,3.42308943 29.0871843,3.26407635 C28.5702737,2.93821704 28.1739756,2.98991587 27.8340678,3.27347614 C26.7798835,4.15157299 23.8052981,7.67649346 23.8052981,7.67649346 C23.8052981,7.67649346 25.269878,5.33202969 26.0515095,4.2620205 C26.6420407,3.49750442 26.0421111,3.13326264 25.6685257,2.92333404 C25.3215691,2.72907176 24.6409702,2.34759703 24.0457398,3.11524638 C23.5131653,3.83041357 21.3789512,6.66836621 20.7931192,7.55664616 C20.3983875,8.15588264 17.9046856,11.9345974 17.9046856,11.9345974 C17.9046856,11.9345974 18.9854986,9.73583033 19.5893442,8.63527183 C21.0077154,6.04876352 23.3165827,2.821503 23.8428916,2.01782114 C24.1953306,1.44756734 23.7974661,1.19220643 23.2868211,0.849114175 C22.9093198,0.596103217 22.4010244,0.177812655 21.8324228,0.806815129 C20.2127696,2.59747473 19.6950759,3.03378155 19.6950759,3.03378155 C19.6950759,3.03378155 19.727187,2.96798303 19.7632141,2.86693531 C19.8305691,2.67972287 20.0451653,2.37579639 19.5031924,1.99118841 C19.1805149,1.78752633 18.8280759,1.62537999 18.4905176,1.44286744 C18.1647073,1.26662142 17.9242656,1.38255214 17.7088862,1.64496288 C17.3525312,2.07891976 16.9891274,2.50817674 16.6249404,2.93586709 C16.4416721,3.14971227 16.3288916,3.17947826 16.0148293,2.98443266 C15.7046829,2.79173701 15.4047182,2.55830894 15.0734255,2.39302934 C14.6920081,2.20425027 14.3685474,2.25516578 14.089729,2.64839024 C13.4106965,3.60560198 12.6925041,4.53461435 11.995458,5.47929304 C11.3469702,6.35817321 9.49470732,8.82718416 9.49470732,8.82718416 C9.49470732,8.82718416 10.320981,6.97699258 10.8136125,6.14119477 C11.3054607,5.30461364 12.1434824,3.67375044 12.3291003,3.27895935 C12.6619593,2.57162531 12.0416667,2.40791234 11.6250054,2.19563379 C11.207561,1.98413856 10.6554065,1.70841145 10.2779051,2.12435207 C9.6826748,2.81758643 6.52168835,6.88769459 5.01716531,9.20787557 C3.59096206,11.4058593 1.47162873,15.584065 1.25076694,16.6626907 C1.18419512,16.9854168 1.36746341,17.28386 1.67212737,17.3292923 C1.9525122,17.3715914 2.41303252,17.3386921 2.5281626,17.1632294 C2.9988645,16.4441456 3.1805664,15.9898226 3.59801084,15.2339229 C4.05069919,14.4137914 4.47754201,13.9900177 4.47754201,13.9900177 C4.47754201,13.9900177 2.83517615,18.5731976 2.63467751,19.1928003 C2.39736856,19.9283337 1.1199729,23.8738947 0.701745257,25.1060502 C0.612460705,25.3684609 0.665718157,25.6097222 0.965682927,25.7123365 C1.34788347,25.8439335 1.80135501,25.8204341 2.17650678,25.9700474 C2.62214634,26.2081753 2.04414634,27.683942 1.89925474,28.3199943 C1.60555556,29.6077653 1.47162873,30.5743768 1.56952846,31.8911304 C1.58362602,32.0853927 1.75984553,32.3767861 1.92510027,32.4316182 C2.43339566,32.6023811 2.79993225,32.6438968 3.32780759,32.7582609 C3.73585366,32.8264093 3.59722764,33.2204171 4.06557995,33.4154627 C4.36006233,33.5384433 4.68665583,33.6191248 5.00306775,33.6324411 C5.27797019,33.6434076 5.80897832,33.5509763 5.96483469,32.9486066 C6.12225745,32.3109876 7.37380759,28.274562 8.18911653,26.3758049 C10.4705718,21.3046193 11.8458672,19.0533701 11.8458672,19.0533701 C11.8458672,19.0533701 10.3225474,23.6420332 10.1572927,24.1558883 C9.88004065,25.0191022 7.14981301,34.0154825 7.12161789,34.7737321 C7.09655556,35.4372004 8.10609756,35.542948 8.45853659,35.5915136 C9.08196206,35.676895 9.34276694,35.3745352 9.51037127,34.7604157 C10.5833523,30.8375709 12.340065,26.8567607 12.340065,26.8567607 L12.340065,26.8567607 Z" id="Fill-28" fill="#FFFFFF"></path>
                    </g>
                </g>
            </g>
        </g>
    </g>
</svg>