<svg id="Layer_1" data-name="Layer 1" xmlns="http://www.w3.org/2000/svg" viewBox="0 0 30 29.94">
  <defs>
    <style>
      .cls-1 {
        fill: none;
        stroke: #fff;
        stroke-width: 2px;
      }
    </style>
  </defs>
  <title>phone</title>
  <g id="Page-1">
    <g id="Desktop-Copy-3">
      <g id="Group-3">
        <g id="phone">
          <path id="Page-1-2" data-name="Page-1" class="cls-1" d="M28.37,23.1,24,18.77a2.25,2.25,0,0,0-3.18.06L18.69,21l-.43-.24A21.7,21.7,0,0,1,13,17a21.76,21.76,0,0,1-3.8-5.25L9,11.31l1.46-1.46.72-.72A2.25,2.25,0,0,0,11.23,6L6.9,1.63a2.25,2.25,0,0,0-3.18.06L2.54,2.95a7.09,7.09,0,0,0-1,1.77,7.31,7.31,0,0,0-.45,1.8c-.57,4.73,1.59,9.06,7.46,14.93,8.12,8.11,14.66,7.5,14.94,7.47a7.34,7.34,0,0,0,1.8-.45,7,7,0,0,0,1.76-1l1.26-1.19A2.26,2.26,0,0,0,28.37,23.1Z" transform="translate(0 0)"/>
        </g>
      </g>
    </g>
  </g>
</svg>
